<?xml version="1.0" encoding="utf-8"?>
<!-- Generator: Adobe Illustrator 16.0.0, SVG Export Plug-In . SVG Version: 6.00 Build 0)  -->
<!DOCTYPE svg PUBLIC "-//W3C//DTD SVG 1.1//EN" "http://www.w3.org/Graphics/SVG/1.1/DTD/svg11.dtd">
<svg version="1.1" id="Layer_1" xmlns="http://www.w3.org/2000/svg" xmlns:xlink="http://www.w3.org/1999/xlink" x="0px" y="0px"
	 width="214.922px" height="35.729px" viewBox="21 37.999 214.922 35.729" enable-background="new 21 37.999 214.922 35.729"
	 xml:space="preserve">
<g>
	<g transform="translate(50 50) scale(0.69 0.69) rotate(0) translate(-50 -50)">
		<g display="none">
			<rect y="-14.259" display="inline" fill="none" width="100" height="100"/>
		</g>
		<g>
			<path fill="#FFFFFF" d="M88.543,62.167c0.613-1.396,0.957-2.933,0.957-4.552c0-6.274-5.102-11.376-11.375-11.376
				c-3.221,0-6.13,1.353-8.2,3.513c-0.436-0.317-0.994-0.461-1.567-0.35l-15.625,3.125c-0.723,0.144-1.309,0.678-1.52,1.383
				c-0.215,0.705-0.024,1.471,0.498,1.993l12.211,12.211H42.625V48.241c0-0.861-0.551-1.625-1.367-1.897L23.875,40.55v-1.684
				c0-1.104-0.896-2-2-2s-2,0.896-2,2v3.125c0,0.86,0.551,1.625,1.367,1.896l4.508,1.503L14.388,68.116H12.5c-1.104,0-2,0.896-2,2
				s0.896,2,2,2h3.125c0.759,0,1.449-0.426,1.789-1.105l10.711-21.422L38.836,71.01c0.004,0.009,0.016,0.014,0.02,0.02
				c0.334,0.643,0.996,1.084,1.769,1.084H64.33c1.095,0,2.164-0.15,3.197-0.419c0.1,0.079,0.208,0.15,0.327,0.209l18.75,9.375
				c0.283,0.142,0.59,0.209,0.894,0.209c0.365,0,0.73-0.099,1.053-0.297c0.589-0.365,0.948-1.009,0.948-1.701V63.866
				C89.5,63.145,89.115,62.518,88.543,62.167z M78.125,50.241c4.066,0,7.375,3.31,7.375,7.375c0,4.066-3.309,7.375-7.375,7.375
				c-4.066,0-7.375-3.309-7.375-7.375C70.75,53.551,74.059,50.241,78.125,50.241z M67.472,53.661
				c-0.459,1.234-0.722,2.562-0.722,3.954c0,3.207,1.336,6.1,3.479,8.171c-0.528,0.493-1.107,0.916-1.724,1.258L57.181,55.719
				L67.472,53.661z M38.625,49.682v11.962L31.448,47.29L38.625,49.682z M72.009,69.51c0.444-0.342,0.875-0.702,1.279-1.105
				c0.113-0.112,0.204-0.239,0.286-0.369c1.393,0.611,2.933,0.955,4.549,0.955c2.814,0,5.387-1.032,7.375-2.73v9.995L72.009,69.51z"
				/>
		</g>
	</g>
</g>
<g>
	<path fill="#FFFFFF" stroke="#FFFFFF" stroke-width="0.5" stroke-miterlimit="10" d="M100.9,67.681l1.141-2.875
		c0.583,0.428,1.31,0.784,2.18,1.07c0.869,0.287,1.648,0.43,2.336,0.43c1.219,0,2.197-0.333,2.938-1
		c0.739-0.666,1.109-1.516,1.109-2.547c0-0.771-0.206-1.486-0.617-2.148c-0.412-0.661-1.445-1.383-3.102-2.164l-1.844-0.859
		c-1.563-0.729-2.654-1.594-3.273-2.594c-0.62-1-0.93-2.203-0.93-3.609c0-1.708,0.604-3.125,1.813-4.25
		c1.208-1.125,2.76-1.688,4.656-1.688c2.531,0,4.291,0.412,5.281,1.234l-0.922,2.719c-0.417-0.302-1.053-0.594-1.906-0.875
		c-0.854-0.281-1.646-0.422-2.375-0.422c-1.063,0-1.898,0.303-2.508,0.906c-0.609,0.604-0.914,1.381-0.914,2.328
		c0,0.584,0.109,1.115,0.328,1.594c0.219,0.479,0.523,0.881,0.914,1.203c0.391,0.323,1.189,0.776,2.398,1.359l1.875,0.891
		c1.563,0.74,2.658,1.623,3.289,2.648c0.63,1.026,0.945,2.331,0.945,3.914c0,1.719-0.69,3.178-2.07,4.375
		c-1.381,1.198-3.227,1.797-5.539,1.797C104.072,69.118,102.338,68.64,100.9,67.681z"/>
	<path fill="#FFFFFF" stroke="#FFFFFF" stroke-width="0.5" stroke-miterlimit="10" d="M117.479,68.728V50.868h2.906v15.328h8.25
		v2.531H117.479z"/>
	<path fill="#FFFFFF" stroke="#FFFFFF" stroke-width="0.5" stroke-miterlimit="10" d="M131.494,68.728V50.868h2.906v17.859H131.494z
		"/>
	<path fill="#FFFFFF" stroke="#FFFFFF" stroke-width="0.5" stroke-miterlimit="10" d="M155.557,68.728l-2.141-11.234l-5.063,11.484
		h-0.641l-5.375-11.453l-1.891,11.203h-3.094l3.641-17.859h1.188l5.828,12.484l5.531-12.484h1.188l3.938,17.859H155.557z"/>
	<path fill="#FFFFFF" stroke="#FFFFFF" stroke-width="0.5" stroke-miterlimit="10" d="M164.572,59.915v8.813h-3.125V45.837
		c2.364-0.104,3.791-0.156,4.281-0.156c6.646,0,9.969,2.225,9.969,6.672c0,5.146-2.938,7.719-8.813,7.719
		C166.53,60.071,165.76,60.02,164.572,59.915z M164.572,48.649v8.453c1.322,0.104,2.021,0.156,2.094,0.156
		c3.875,0,5.813-1.525,5.813-4.578c0-2.791-2.068-4.188-6.203-4.188C165.858,48.493,165.291,48.546,164.572,48.649z"/>
	<path fill="#FFFFFF" stroke="#FFFFFF" stroke-width="0.5" stroke-miterlimit="10" d="M189.682,68.728l-4.922-7.484
		c-0.167,0-0.969-0.041-2.406-0.125v7.609h-2.906V50.868c2.719-0.125,4.447-0.188,5.188-0.188c4.479,0,6.719,1.709,6.719,5.125
		c0,1.104-0.359,2.102-1.078,2.992s-1.62,1.514-2.703,1.867l5.563,8.063H189.682z M182.354,58.712
		c0.771,0.084,1.338,0.125,1.703,0.125c1.614,0,2.727-0.234,3.336-0.703s0.914-1.266,0.914-2.391c0-0.906-0.305-1.56-0.914-1.961
		c-0.609-0.4-1.576-0.602-2.898-0.602c-0.521,0-1.234,0.042-2.141,0.125V58.712z"/>
	<path fill="#FFFFFF" stroke="#FFFFFF" stroke-width="0.5" stroke-miterlimit="10" d="M198.541,53.399v4.953h6.281v2.406h-6.281
		v5.438h8.609v2.531h-11.516V50.868h11.641v2.531H198.541z"/>
	<path fill="#FFFFFF" stroke="#FFFFFF" stroke-width="0.5" stroke-miterlimit="10" d="M209.4,67.743l1.047-2.438
		c1.166,0.834,2.51,1.25,4.031,1.25c0.916,0,1.627-0.224,2.133-0.672c0.505-0.447,0.758-1.036,0.758-1.766
		c0-0.875-0.287-1.547-0.859-2.016c-0.573-0.469-1.396-0.947-2.469-1.438c-2.99-1.354-4.484-3.146-4.484-5.375
		c0-1.344,0.51-2.463,1.531-3.359c1.021-0.896,2.322-1.344,3.906-1.344c1.666,0,3.161,0.35,4.484,1.047l-0.969,2.406
		c-1.313-0.688-2.464-1.031-3.453-1.031c-0.834,0-1.479,0.206-1.938,0.617c-0.459,0.412-0.688,0.945-0.688,1.602
		c0,0.688,0.283,1.292,0.852,1.813c0.567,0.521,1.523,1.068,2.867,1.641c1.469,0.678,2.513,1.428,3.133,2.25
		c0.619,0.823,0.93,1.896,0.93,3.219c0,1.438-0.537,2.607-1.609,3.508c-1.073,0.901-2.469,1.352-4.188,1.352
		C212.416,69.009,210.744,68.587,209.4,67.743z"/>
	<path fill="#FFFFFF" stroke="#FFFFFF" stroke-width="0.5" stroke-miterlimit="10" d="M222.463,67.743l1.047-2.438
		c1.166,0.834,2.51,1.25,4.031,1.25c0.916,0,1.627-0.224,2.133-0.672c0.505-0.447,0.758-1.036,0.758-1.766
		c0-0.875-0.287-1.547-0.859-2.016c-0.573-0.469-1.396-0.947-2.469-1.438c-2.99-1.354-4.484-3.146-4.484-5.375
		c0-1.344,0.51-2.463,1.531-3.359c1.021-0.896,2.322-1.344,3.906-1.344c1.666,0,3.161,0.35,4.484,1.047l-0.969,2.406
		c-1.313-0.688-2.464-1.031-3.453-1.031c-0.834,0-1.479,0.206-1.938,0.617c-0.459,0.412-0.688,0.945-0.688,1.602
		c0,0.688,0.283,1.292,0.852,1.813c0.567,0.521,1.523,1.068,2.867,1.641c1.469,0.678,2.513,1.428,3.133,2.25
		c0.619,0.823,0.93,1.896,0.93,3.219c0,1.438-0.537,2.607-1.609,3.508c-1.073,0.901-2.469,1.352-4.188,1.352
		C225.479,69.009,223.807,68.587,222.463,67.743z"/>
</g>
</svg>
